<svg width="304" height="282" viewBox="0 0 304 282" fill="none" xmlns="http://www.w3.org/2000/svg">
<g clip-path="url(#clip0_3_2)">
<path d="M109.955 146.017H119.452V135.07H125.87C134.203 135.07 139.586 129.946 139.586 121.95V121.898C139.586 113.901 134.203 108.674 125.87 108.674H109.955V146.017ZM123.593 115.946C127.604 115.946 129.985 118.016 129.985 121.898V121.95C129.985 125.831 127.604 127.928 123.593 127.928H119.452V115.946H123.593ZM150.093 146.405C153.768 146.405 156.563 144.801 158.167 142.032H158.348V146.017H167.509V126.789C167.509 121.07 162.515 117.24 154.932 117.24C147.091 117.24 142.407 120.992 141.967 126.478L141.941 126.815H150.196L150.248 126.556C150.559 125.107 152.008 123.968 154.466 123.968C157.029 123.968 158.348 125.236 158.348 127.281V128.678L151.93 129.092C144.658 129.584 140.57 132.56 140.57 137.865V137.891C140.57 142.808 144.425 146.405 150.093 146.405ZM149.575 137.296V137.27C149.575 135.588 150.843 134.527 153.405 134.371L158.348 134.035V135.924C158.348 138.305 156.252 140.065 153.302 140.065C151.05 140.065 149.575 139.056 149.575 137.296ZM180.371 146.405C184.046 146.405 186.841 144.801 188.445 142.032H188.627V146.017H197.788V126.789C197.788 121.07 192.793 117.24 185.211 117.24C177.369 117.24 172.685 120.992 172.245 126.478L172.219 126.815H180.475L180.527 126.556C180.837 125.107 182.286 123.968 184.745 123.968C187.307 123.968 188.627 125.236 188.627 127.281V128.678L182.209 129.092C174.937 129.584 170.848 132.56 170.848 137.865V137.891C170.848 142.808 174.704 146.405 180.371 146.405ZM179.854 137.296V137.27C179.854 135.588 181.122 134.527 183.684 134.371L188.627 134.035V135.924C188.627 138.305 186.53 140.065 183.58 140.065C181.329 140.065 179.854 139.056 179.854 137.296ZM202.187 155.075H211.374V141.178H211.555C212.953 144.568 216.058 146.612 220.121 146.612C227.16 146.612 231.275 141.203 231.275 131.939V131.913C231.275 122.597 227.134 117.24 220.018 117.24C216.007 117.24 213.005 119.336 211.581 122.855H211.374V117.835H202.187V155.075ZM216.654 139.159C213.445 139.159 211.322 136.416 211.322 131.965V131.939C211.322 127.436 213.47 124.719 216.654 124.719C219.888 124.719 221.959 127.41 221.959 131.913V131.939C221.959 136.39 219.888 139.159 216.654 139.159ZM239.556 114.807C242.222 114.807 244.24 112.737 244.24 110.278C244.24 107.82 242.222 105.775 239.556 105.775C236.917 105.775 234.872 107.82 234.872 110.278C234.872 112.737 236.917 114.807 239.556 114.807ZM234.976 146.017H244.137V117.835H234.976V146.017ZM257.076 146.405C260.751 146.405 263.546 144.801 265.151 142.032H265.332V146.017H274.493V126.789C274.493 121.07 269.498 117.24 261.916 117.24C254.074 117.24 249.39 120.992 248.95 126.478L248.924 126.815H257.18L257.232 126.556C257.542 125.107 258.991 123.968 261.45 123.968C264.012 123.968 265.332 125.236 265.332 127.281V128.678L258.914 129.092C251.642 129.584 247.553 132.56 247.553 137.865V137.891C247.553 142.808 251.409 146.405 257.076 146.405ZM256.559 137.296V137.27C256.559 135.588 257.827 134.527 260.389 134.371L265.332 134.035V135.924C265.332 138.305 263.236 140.065 260.285 140.065C258.034 140.065 256.559 139.056 256.559 137.296ZM278.892 146.017H288.079V131.059C288.079 127.048 290.175 124.926 294.031 124.926C295.118 124.926 296.179 125.133 296.956 125.443V117.602C296.257 117.369 295.455 117.24 294.575 117.24C291.262 117.24 289.037 119.258 288.26 122.829H288.079V117.835H278.892V146.017Z" fill="#221573"/>
<path d="M107.821 150H107.321V150.5H107.821V150ZM117.318 150V150.5H117.818V150H117.318ZM117.318 139.053V138.553H116.818V139.053H117.318ZM107.821 112.657V112.157H107.321V112.657H107.821ZM117.318 131.911H116.818V132.411H117.318V131.911ZM117.318 119.929V119.429H116.818V119.929H117.318ZM107.821 150.5H117.318V149.5H107.821V150.5ZM117.818 150V139.053H116.818V150H117.818ZM117.318 139.553H123.736V138.553H117.318V139.553ZM123.736 139.553C128.005 139.553 131.567 138.239 134.064 135.853C136.565 133.465 137.952 130.047 137.952 125.933H136.952C136.952 129.815 135.648 132.957 133.374 135.13C131.097 137.305 127.8 138.553 123.736 138.553V139.553ZM137.952 125.933V125.881H136.952V125.933H137.952ZM137.952 125.881C137.952 121.767 136.565 118.324 134.067 115.91C131.57 113.498 128.008 112.157 123.736 112.157V113.157C127.797 113.157 131.094 114.429 133.372 116.63C135.648 118.829 136.952 121.998 136.952 125.881H137.952ZM123.736 112.157H107.821V113.157H123.736V112.157ZM107.321 112.657V150H108.321V112.657H107.321ZM121.459 120.429C123.384 120.429 124.845 120.925 125.822 121.818C126.791 122.705 127.351 124.045 127.351 125.881H128.351C128.351 123.835 127.72 122.199 126.497 121.08C125.28 119.967 123.545 119.429 121.459 119.429V120.429ZM127.351 125.881V125.933H128.351V125.881H127.351ZM127.351 125.933C127.351 127.769 126.791 129.116 125.821 130.009C124.844 130.908 123.382 131.411 121.459 131.411V132.411C123.547 132.411 125.281 131.865 126.498 130.745C127.721 129.62 128.351 127.978 128.351 125.933H127.351ZM121.459 131.411H117.318V132.411H121.459V131.411ZM117.818 131.911V119.929H116.818V131.911H117.818ZM117.318 120.429H121.459V119.429H117.318V120.429ZM156.033 146.015V145.515H155.745L155.601 145.764L156.033 146.015ZM156.214 146.015H156.714V145.515H156.214V146.015ZM156.214 150H155.714V150.5H156.214V150ZM165.375 150V150.5H165.875V150H165.375ZM139.833 130.461L139.335 130.421L139.334 130.423L139.833 130.461ZM139.807 130.798L139.309 130.76L139.267 131.298H139.807V130.798ZM148.062 130.798V131.298H148.472L148.553 130.896L148.062 130.798ZM148.114 130.539L147.625 130.434L147.624 130.441L148.114 130.539ZM156.214 132.661L156.247 133.16L156.714 133.13V132.661H156.214ZM149.796 133.075L149.764 132.576L149.763 132.576L149.796 133.075ZM151.271 138.354L151.302 138.854L151.305 138.853L151.271 138.354ZM156.214 138.018H156.714V137.483L156.18 137.519L156.214 138.018ZM147.959 150.888C151.797 150.888 154.764 149.202 156.466 146.265L155.601 145.764C154.093 148.366 151.471 149.888 147.959 149.888V150.888ZM156.033 146.515H156.214V145.515H156.033V146.515ZM155.714 146.015V150H156.714V146.015H155.714ZM156.214 150.5H165.375V149.5H156.214V150.5ZM165.875 150V130.772H164.875V150H165.875ZM165.875 130.772C165.875 127.751 164.55 125.219 162.233 123.455C159.928 121.7 156.668 120.723 152.798 120.723V121.723C156.511 121.723 159.54 122.661 161.627 124.25C163.704 125.831 164.875 128.074 164.875 130.772H165.875ZM152.798 120.723C148.802 120.723 145.558 121.679 143.244 123.382C140.92 125.092 139.566 127.535 139.335 130.421L140.331 130.501C140.54 127.902 141.748 125.725 143.837 124.187C145.935 122.643 148.953 121.723 152.798 121.723V120.723ZM139.334 130.423L139.309 130.76L140.306 130.836L140.332 130.5L139.334 130.423ZM139.807 131.298H148.062V130.298H139.807V131.298ZM148.553 130.896L148.605 130.637L147.624 130.441L147.572 130.7L148.553 130.896ZM148.603 130.644C148.848 129.502 150.021 128.451 152.333 128.451V127.451C149.727 127.451 148.002 128.677 147.625 130.434L148.603 130.644ZM152.333 128.451C153.537 128.451 154.374 128.749 154.904 129.216C155.425 129.675 155.714 130.353 155.714 131.264H156.714C156.714 130.129 156.344 129.152 155.565 128.466C154.794 127.787 153.69 127.451 152.333 127.451V128.451ZM155.714 131.264V132.661H156.714V131.264H155.714ZM156.182 132.162L149.764 132.576L149.829 133.574L156.247 133.16L156.182 132.162ZM149.763 132.576C146.076 132.826 143.126 133.708 141.086 135.259C139.024 136.827 137.936 139.048 137.936 141.848H138.936C138.936 139.343 139.892 137.423 141.692 136.055C143.515 134.668 146.245 133.816 149.83 133.574L149.763 132.576ZM137.936 141.848V141.874H138.936V141.848H137.936ZM137.936 141.874C137.936 144.47 138.957 146.734 140.736 148.346C142.513 149.954 145.019 150.888 147.959 150.888V149.888C145.231 149.888 142.975 149.024 141.408 147.604C139.843 146.188 138.936 144.195 138.936 141.874H137.936ZM147.941 141.279V141.253H146.941V141.279H147.941ZM147.941 141.253C147.941 140.554 148.196 140.019 148.702 139.626C149.23 139.217 150.074 138.928 151.302 138.854L151.241 137.855C149.907 137.936 148.836 138.256 148.089 138.836C147.32 139.433 146.941 140.27 146.941 141.253H147.941ZM151.305 138.853L156.248 138.517L156.18 137.519L151.238 137.856L151.305 138.853ZM155.714 138.018V139.907H156.714V138.018H155.714ZM155.714 139.907C155.714 141.927 153.936 143.548 151.168 143.548V144.548C154.301 144.548 156.714 142.649 156.714 139.907H155.714ZM151.168 143.548C150.109 143.548 149.292 143.309 148.754 142.919C148.235 142.541 147.941 142 147.941 141.279H146.941C146.941 142.317 147.386 143.161 148.167 143.728C148.929 144.282 149.976 144.548 151.168 144.548V143.548ZM186.312 146.015V145.515H186.023L185.879 145.764L186.312 146.015ZM186.493 146.015H186.993V145.515H186.493V146.015ZM186.493 150H185.993V150.5H186.493V150ZM195.654 150V150.5H196.154V150H195.654ZM170.111 130.461L169.613 130.421L169.613 130.423L170.111 130.461ZM170.085 130.798L169.587 130.76L169.546 131.298H170.085V130.798ZM178.341 130.798V131.298H178.751L178.831 130.896L178.341 130.798ZM178.393 130.539L177.904 130.434L177.902 130.441L178.393 130.539ZM186.493 132.661L186.525 133.16L186.993 133.13V132.661H186.493ZM180.075 133.075L180.043 132.576L180.041 132.576L180.075 133.075ZM181.55 138.354L181.58 138.854L181.584 138.853L181.55 138.354ZM186.493 138.018H186.993V137.483L186.459 137.519L186.493 138.018ZM178.237 150.888C182.075 150.888 185.043 149.202 186.744 146.265L185.879 145.764C184.371 148.366 181.749 149.888 178.237 149.888V150.888ZM186.312 146.515H186.493V145.515H186.312V146.515ZM185.993 146.015V150H186.993V146.015H185.993ZM186.493 150.5H195.654V149.5H186.493V150.5ZM196.154 150V130.772H195.154V150H196.154ZM196.154 130.772C196.154 127.751 194.828 125.219 192.512 123.455C190.206 121.7 186.947 120.723 183.077 120.723V121.723C186.789 121.723 189.818 122.661 191.906 124.25C193.982 125.831 195.154 128.074 195.154 130.772H196.154ZM183.077 120.723C179.081 120.723 175.836 121.679 173.522 123.382C171.198 125.092 169.844 127.535 169.613 130.421L170.61 130.501C170.818 127.902 172.026 125.725 174.115 124.187C176.213 122.643 179.231 121.723 183.077 121.723V120.723ZM169.613 130.423L169.587 130.76L170.584 130.836L170.61 130.5L169.613 130.423ZM170.085 131.298H178.341V130.298H170.085V131.298ZM178.831 130.896L178.883 130.637L177.902 130.441L177.851 130.7L178.831 130.896ZM178.881 130.644C179.126 129.502 180.299 128.451 182.611 128.451V127.451C180.006 127.451 178.28 128.677 177.904 130.434L178.881 130.644ZM182.611 128.451C183.815 128.451 184.652 128.749 185.182 129.216C185.703 129.675 185.993 130.353 185.993 131.264H186.993C186.993 130.129 186.623 129.152 185.843 128.466C185.072 127.787 183.968 127.451 182.611 127.451V128.451ZM185.993 131.264V132.661H186.993V131.264H185.993ZM186.46 132.162L180.043 132.576L180.107 133.574L186.525 133.16L186.46 132.162ZM180.041 132.576C176.354 132.826 173.404 133.708 171.365 135.259C169.302 136.827 168.214 139.048 168.214 141.848H169.214C169.214 139.343 170.17 137.423 171.97 136.055C173.793 134.668 176.523 133.816 180.108 133.574L180.041 132.576ZM168.214 141.848V141.874H169.214V141.848H168.214ZM168.214 141.874C168.214 144.47 169.235 146.734 171.015 148.346C172.792 149.954 175.298 150.888 178.237 150.888V149.888C175.509 149.888 173.254 149.024 171.686 147.604C170.121 146.188 169.214 144.195 169.214 141.874H168.214ZM178.22 141.279V141.253H177.22V141.279H178.22ZM178.22 141.253C178.22 140.554 178.475 140.019 178.981 139.626C179.508 139.217 180.352 138.928 181.58 138.854L181.52 137.855C180.185 137.936 179.115 138.256 178.367 138.836C177.599 139.433 177.22 140.27 177.22 141.253H178.22ZM181.584 138.853L186.527 138.517L186.459 137.519L181.516 137.856L181.584 138.853ZM185.993 138.018V139.907H186.993V138.018H185.993ZM185.993 139.907C185.993 141.927 184.214 143.548 181.446 143.548V144.548C184.579 144.548 186.993 142.649 186.993 139.907H185.993ZM181.446 143.548C180.387 143.548 179.57 143.309 179.033 142.919C178.513 142.541 178.22 142 178.22 141.279H177.22C177.22 142.317 177.664 143.161 178.445 143.728C179.208 144.282 180.254 144.548 181.446 144.548V143.548ZM200.053 159.058H199.553V159.558H200.053V159.058ZM209.24 159.058V159.558H209.74V159.058H209.24ZM209.24 145.161V144.661H208.74V145.161H209.24ZM209.421 145.161L209.884 144.97L209.756 144.661H209.421V145.161ZM209.447 126.838V127.338H209.784L209.911 127.026L209.447 126.838ZM209.24 126.838H208.74V127.338H209.24V126.838ZM209.24 121.818H209.74V121.318H209.24V121.818ZM200.053 121.818V121.318H199.553V121.818H200.053ZM200.053 159.558H209.24V158.558H200.053V159.558ZM209.74 159.058V145.161H208.74V159.058H209.74ZM209.24 145.661H209.421V144.661H209.24V145.661ZM208.959 145.351C210.44 148.943 213.738 151.095 217.987 151.095V150.095C214.111 150.095 211.198 148.158 209.884 144.97L208.959 145.351ZM217.987 151.095C221.65 151.095 224.591 149.68 226.602 147.035C228.599 144.409 229.641 140.619 229.641 135.922H228.641C228.641 140.489 227.626 144.036 225.806 146.43C224 148.806 221.364 150.095 217.987 150.095V151.095ZM229.641 135.922V135.896H228.641V135.922H229.641ZM229.641 135.896C229.641 131.173 228.593 127.382 226.578 124.761C224.549 122.122 221.581 120.723 217.884 120.723V121.723C221.303 121.723 223.964 123.002 225.785 125.37C227.619 127.757 228.641 131.303 228.641 135.896H229.641ZM217.884 120.723C213.669 120.723 210.483 122.942 208.984 126.651L209.911 127.026C211.258 123.695 214.076 121.723 217.884 121.723V120.723ZM209.447 126.338H209.24V127.338H209.447V126.338ZM209.74 126.838V121.818H208.74V126.838H209.74ZM209.24 121.318H200.053V122.318H209.24V121.318ZM199.553 121.818V159.058H200.553V121.818H199.553ZM214.52 142.642C213.074 142.642 211.889 142.032 211.051 140.914C210.202 139.783 209.688 138.1 209.688 135.948H208.688C208.688 138.246 209.236 140.161 210.251 141.514C211.276 142.881 212.756 143.642 214.52 143.642V142.642ZM209.688 135.948V135.922H208.688V135.948H209.688ZM209.688 135.922C209.688 133.744 210.209 132.055 211.06 130.924C211.901 129.806 213.086 129.202 214.52 129.202V128.202C212.77 128.202 211.289 128.956 210.261 130.323C209.242 131.676 208.688 133.597 208.688 135.922H209.688ZM214.52 129.202C215.982 129.202 217.158 129.802 217.984 130.909C218.822 132.032 219.325 133.714 219.325 135.896H220.325C220.325 133.575 219.792 131.66 218.786 130.311C217.768 128.947 216.292 128.202 214.52 128.202V129.202ZM219.325 135.896V135.922H220.325V135.896H219.325ZM219.325 135.922C219.325 138.077 218.823 139.767 217.983 140.904C217.154 142.026 215.977 142.642 214.52 142.642V143.642C216.297 143.642 217.772 142.873 218.787 141.498C219.792 140.138 220.325 138.218 220.325 135.922H219.325ZM232.842 150H232.342V150.5H232.842V150ZM242.003 150V150.5H242.503V150H242.003ZM242.003 121.818H242.503V121.318H242.003V121.818ZM232.842 121.818V121.318H232.342V121.818H232.842ZM237.422 119.29C240.357 119.29 242.606 117.003 242.606 114.261H241.606C241.606 116.436 239.819 118.29 237.422 118.29V119.29ZM242.606 114.261C242.606 111.516 240.353 109.258 237.422 109.258V110.258C239.823 110.258 241.606 112.09 241.606 114.261H242.606ZM237.422 109.258C234.52 109.258 232.238 111.514 232.238 114.261H233.238C233.238 112.092 235.046 110.258 237.422 110.258V109.258ZM232.238 114.261C232.238 117.005 234.516 119.29 237.422 119.29V118.29C235.05 118.29 233.238 116.434 233.238 114.261H232.238ZM232.842 150.5H242.003V149.5H232.842V150.5ZM242.503 150V121.818H241.503V150H242.503ZM242.003 121.318H232.842V122.318H242.003V121.318ZM232.342 121.818V150H233.342V121.818H232.342ZM263.017 146.015V145.515H262.728L262.584 145.764L263.017 146.015ZM263.198 146.015H263.698V145.515H263.198V146.015ZM263.198 150H262.698V150.5H263.198V150ZM272.359 150V150.5H272.859V150H272.359ZM246.816 130.461L246.318 130.421L246.318 130.423L246.816 130.461ZM246.791 130.798L246.292 130.76L246.251 131.298H246.791V130.798ZM255.046 130.798V131.298H255.456L255.536 130.896L255.046 130.798ZM255.098 130.539L254.609 130.434L254.607 130.441L255.098 130.539ZM263.198 132.661L263.23 133.16L263.698 133.13V132.661H263.198ZM256.78 133.075L256.748 132.576L256.746 132.576L256.78 133.075ZM258.255 138.354L258.285 138.854L258.289 138.853L258.255 138.354ZM263.198 138.018H263.698V137.483L263.164 137.519L263.198 138.018ZM254.942 150.888C258.78 150.888 261.748 149.202 263.449 146.265L262.584 145.764C261.076 148.366 258.454 149.888 254.942 149.888V150.888ZM263.017 146.515H263.198V145.515H263.017V146.515ZM262.698 146.015V150H263.698V146.015H262.698ZM263.198 150.5H272.359V149.5H263.198V150.5ZM272.859 150V130.772H271.859V150H272.859ZM272.859 130.772C272.859 127.751 271.533 125.219 269.217 123.455C266.912 121.7 263.652 120.723 259.782 120.723V121.723C263.494 121.723 266.523 122.661 268.611 124.25C270.687 125.831 271.859 128.074 271.859 130.772H272.859ZM259.782 120.723C255.786 120.723 252.541 121.679 250.227 123.382C247.903 125.092 246.549 127.535 246.318 130.421L247.315 130.501C247.523 127.902 248.731 125.725 250.82 124.187C252.918 122.643 255.936 121.723 259.782 121.723V120.723ZM246.318 130.423L246.292 130.76L247.289 130.836L247.315 130.5L246.318 130.423ZM246.791 131.298H255.046V130.298H246.791V131.298ZM255.536 130.896L255.588 130.637L254.607 130.441L254.556 130.7L255.536 130.896ZM255.587 130.644C255.831 129.502 257.004 128.451 259.316 128.451V127.451C256.711 127.451 254.985 128.677 254.609 130.434L255.587 130.644ZM259.316 128.451C260.521 128.451 261.357 128.749 261.887 129.216C262.408 129.675 262.698 130.353 262.698 131.264H263.698C263.698 130.129 263.328 129.152 262.548 128.466C261.777 127.787 260.673 127.451 259.316 127.451V128.451ZM262.698 131.264V132.661H263.698V131.264H262.698ZM263.166 132.162L256.748 132.576L256.812 133.574L263.23 133.16L263.166 132.162ZM256.746 132.576C253.059 132.826 250.109 133.708 248.07 135.259C246.007 136.827 244.919 139.048 244.919 141.848H245.919C245.919 139.343 246.875 137.423 248.675 136.055C250.498 134.668 253.228 133.816 256.814 133.574L256.746 132.576ZM244.919 141.848V141.874H245.919V141.848H244.919ZM244.919 141.874C244.919 144.47 245.94 146.734 247.72 148.346C249.497 149.954 252.003 150.888 254.942 150.888V149.888C252.215 149.888 249.959 149.024 248.391 147.604C246.826 146.188 245.919 144.195 245.919 141.874H244.919ZM254.925 141.279V141.253H253.925V141.279H254.925ZM254.925 141.253C254.925 140.554 255.18 140.019 255.686 139.626C256.213 139.217 257.057 138.928 258.285 138.854L258.225 137.855C256.89 137.936 255.82 138.256 255.072 138.836C254.304 139.433 253.925 140.27 253.925 141.253H254.925ZM258.289 138.853L263.232 138.517L263.164 137.519L258.221 137.856L258.289 138.853ZM262.698 138.018V139.907H263.698V138.018H262.698ZM262.698 139.907C262.698 141.927 260.919 143.548 258.151 143.548V144.548C261.284 144.548 263.698 142.649 263.698 139.907H262.698ZM258.151 143.548C257.092 143.548 256.275 143.309 255.738 142.919C255.218 142.541 254.925 142 254.925 141.279H253.925C253.925 142.317 254.369 143.161 255.15 143.728C255.913 144.282 256.959 144.548 258.151 144.548V143.548ZM276.758 150H276.258V150.5H276.758V150ZM285.945 150V150.5H286.445V150H285.945ZM294.822 129.426L294.636 129.891L295.322 130.165V129.426H294.822ZM294.822 121.585H295.322V121.225L294.98 121.111L294.822 121.585ZM286.126 126.812V127.312H286.529L286.615 126.919L286.126 126.812ZM285.945 126.812H285.445V127.312H285.945V126.812ZM285.945 121.818H286.445V121.318H285.945V121.818ZM276.758 121.818V121.318H276.258V121.818H276.758ZM276.758 150.5H285.945V149.5H276.758V150.5ZM286.445 150V135.042H285.445V150H286.445ZM286.445 135.042C286.445 133.119 286.947 131.729 287.833 130.82C288.718 129.913 290.059 129.409 291.897 129.409V128.409C289.88 128.409 288.245 128.965 287.117 130.122C285.992 131.277 285.445 132.954 285.445 135.042H286.445ZM291.897 129.409C292.928 129.409 293.925 129.606 294.636 129.891L295.007 128.962C294.166 128.625 293.041 128.409 291.897 128.409V129.409ZM295.322 129.426V121.585H294.322V129.426H295.322ZM294.98 121.111C294.225 120.859 293.369 120.723 292.441 120.723V121.723C293.272 121.723 294.021 121.845 294.664 122.059L294.98 121.111ZM292.441 120.723C290.677 120.723 289.17 121.263 288 122.305C286.835 123.343 286.043 124.845 285.638 126.706L286.615 126.919C286.987 125.209 287.695 123.916 288.665 123.052C289.63 122.192 290.892 121.723 292.441 121.723V120.723ZM286.126 126.312H285.945V127.312H286.126V126.312ZM286.445 126.812V121.818H285.445V126.812H286.445ZM285.945 121.318H276.758V122.318H285.945V121.318ZM276.258 121.818V150H277.258V121.818H276.258Z" fill="#C5E6FF"/>
<path d="M180.478 73.307H54.447C53.3479 73.2949 52.2572 73.501 51.2382 73.9133C50.2193 74.3256 49.2922 74.9359 48.5107 75.7089C47.7291 76.4819 47.1087 77.4022 46.6853 78.4166C46.2619 79.431 46.0438 80.5193 46.0438 81.6185C46.0438 82.7177 46.2619 83.806 46.6853 84.8204C47.1087 85.8348 47.7291 86.7551 48.5107 87.5281C49.2922 88.3011 50.2193 88.9114 51.2382 89.3237C52.2572 89.736 53.3479 89.942 54.447 89.93H169.114L177.792 103.279C177.933 103.504 178.13 103.69 178.362 103.819C178.595 103.948 178.856 104.016 179.122 104.017C179.282 104.016 179.442 103.991 179.595 103.944C179.931 103.851 180.226 103.648 180.435 103.369C180.644 103.09 180.754 102.75 180.749 102.401V89.93C181.841 89.9123 182.918 89.6797 183.92 89.2456C184.921 88.8115 185.828 88.1844 186.587 87.4C187.346 86.6156 187.944 85.6894 188.345 84.6741C188.746 83.6589 188.944 82.5745 188.926 81.483C188.908 80.3915 188.676 79.3141 188.242 78.3124C187.808 77.3107 187.18 76.4044 186.396 75.6451C185.612 74.8858 184.685 74.2884 183.67 73.8871C182.655 73.4857 181.571 73.2883 180.479 73.306L180.478 73.307ZM180.478 88.86H179.673V102.402C179.677 102.518 179.642 102.632 179.573 102.725C179.504 102.818 179.406 102.886 179.294 102.916C179.184 102.951 179.065 102.949 178.957 102.909C178.848 102.87 178.756 102.795 178.694 102.698L169.696 88.859H54.447C52.5266 88.859 50.6848 88.0961 49.3268 86.7382C47.9689 85.3802 47.206 83.5384 47.206 81.618C47.206 79.6976 47.9689 77.8558 49.3268 76.4978C50.6848 75.1399 52.5266 74.377 54.447 74.377H180.478C182.398 74.377 184.24 75.1399 185.598 76.4978C186.956 77.8558 187.719 79.6976 187.719 81.618C187.719 83.5384 186.956 85.3802 185.598 86.7382C184.24 88.0961 182.398 88.859 180.478 88.859V88.86Z" fill="#221573"/>
<path d="M158.685 79.496H76.245C75.6615 79.496 75.1019 79.7278 74.6894 80.1404C74.2768 80.553 74.045 81.1125 74.045 81.696V82.08C74.045 82.6635 74.2768 83.2231 74.6894 83.6356C75.1019 84.0482 75.6615 84.28 76.245 84.28H158.684C159.266 84.2781 159.824 84.0456 160.235 83.6332C160.646 83.2208 160.877 82.6623 160.877 82.08V81.696C160.877 81.1137 160.646 80.5552 160.235 80.1428C159.824 79.7305 159.266 79.4978 158.684 79.496H158.685Z" fill="white"/>
<path d="M295.093 99.018H212.866C211.767 99.0059 210.676 99.212 209.657 99.6243C208.638 100.037 207.711 100.647 206.93 101.42C206.148 102.193 205.528 103.113 205.104 104.128C204.681 105.142 204.463 106.23 204.463 107.33C204.463 108.429 204.681 109.517 205.104 110.531C205.528 111.546 206.148 112.466 206.93 113.239C207.711 114.012 208.638 114.622 209.657 115.035C210.676 115.447 211.767 115.653 212.866 115.641H214.207V125.431C214.202 125.779 214.311 126.119 214.519 126.398C214.726 126.677 215.02 126.879 215.355 126.974C215.51 127.021 215.671 127.045 215.833 127.047C216.099 127.046 216.36 126.978 216.593 126.849C216.826 126.72 217.022 126.534 217.163 126.309L224.095 115.641H295.095C297.284 115.617 299.374 114.731 300.913 113.175C302.453 111.619 303.316 109.518 303.316 107.33C303.316 105.141 302.453 103.04 300.913 101.484C299.374 99.9283 297.284 99.042 295.095 99.018H295.093ZM295.093 114.571H223.513L216.264 125.727C216.2 125.823 216.106 125.896 215.997 125.935C215.888 125.974 215.77 125.977 215.659 125.943C215.549 125.909 215.452 125.841 215.383 125.748C215.314 125.655 215.277 125.543 215.277 125.427V114.567H212.866C210.946 114.567 209.104 113.804 207.746 112.446C206.388 111.088 205.625 109.246 205.625 107.326C205.625 105.406 206.388 103.564 207.746 102.206C209.104 100.848 210.946 100.085 212.866 100.085H295.093C297.013 100.085 298.855 100.848 300.213 102.206C301.571 103.564 302.334 105.406 302.334 107.326C302.334 109.246 301.571 111.088 300.213 112.446C298.855 113.804 297.013 114.567 295.093 114.567V114.571Z" fill="white"/>
<path d="M281.222 104.671H216.577C216.01 104.688 215.472 104.929 215.083 105.341C214.693 105.754 214.482 106.304 214.497 106.871V107.256C214.482 107.823 214.693 108.373 215.083 108.786C215.472 109.198 216.01 109.439 216.577 109.456H281.222C281.789 109.439 282.327 109.198 282.716 108.786C283.106 108.373 283.317 107.823 283.302 107.256V106.871C283.317 106.304 283.106 105.754 282.716 105.341C282.327 104.929 281.789 104.688 281.222 104.671Z" fill="#C5E6FF"/>
<path d="M140.596 224.031H222.823C223.922 224.043 225.013 223.837 226.032 223.425C227.051 223.012 227.978 222.402 228.759 221.629C229.541 220.856 230.161 219.936 230.585 218.921C231.008 217.907 231.226 216.819 231.226 215.719C231.226 214.62 231.008 213.532 230.585 212.518C230.161 211.503 229.541 210.583 228.759 209.81C227.978 209.037 227.051 208.427 226.032 208.014C225.013 207.602 223.922 207.396 222.823 207.408H221.482V197.618C221.487 197.27 221.378 196.93 221.17 196.651C220.963 196.372 220.669 196.17 220.334 196.075C220.179 196.028 220.018 196.004 219.856 196.002C219.59 196.003 219.329 196.071 219.096 196.2C218.863 196.329 218.667 196.515 218.526 196.74L211.594 207.408H140.594C138.405 207.432 136.315 208.318 134.776 209.874C133.236 211.43 132.373 213.531 132.373 215.719C132.373 217.908 133.236 220.009 134.776 221.565C136.315 223.121 138.405 224.007 140.594 224.031H140.596ZM140.596 208.478H212.176L219.425 197.322C219.489 197.226 219.583 197.153 219.692 197.114C219.801 197.075 219.919 197.072 220.03 197.106C220.14 197.14 220.237 197.208 220.306 197.301C220.375 197.394 220.412 197.506 220.412 197.622V208.482H222.823C224.743 208.482 226.585 209.245 227.943 210.603C229.301 211.961 230.064 213.803 230.064 215.723C230.064 217.643 229.301 219.485 227.943 220.843C226.585 222.201 224.743 222.964 222.823 222.964H140.596C138.676 222.964 136.834 222.201 135.476 220.843C134.118 219.485 133.355 217.643 133.355 215.723C133.355 213.803 134.118 211.961 135.476 210.603C136.834 209.245 138.676 208.482 140.596 208.482V208.478Z" fill="white"/>
<path d="M154.467 218.378H219.112C219.679 218.361 220.217 218.12 220.606 217.708C220.996 217.295 221.207 216.745 221.192 216.178V215.793C221.207 215.226 220.996 214.676 220.606 214.263C220.217 213.851 219.679 213.61 219.112 213.593H154.467C153.9 213.61 153.362 213.851 152.973 214.263C152.583 214.676 152.372 215.226 152.387 215.793V216.178C152.372 216.745 152.583 217.295 152.973 217.708C153.362 218.12 153.9 218.361 154.467 218.378Z" fill="#C5E6FF"/>
<path d="M103.426 145.458H40.844C38.639 145.458 36.5243 146.334 34.9651 147.893C33.4059 149.452 32.53 151.567 32.53 153.772C32.53 155.977 33.4059 158.092 34.9651 159.651C36.5243 161.21 38.639 162.086 40.844 162.086H94.151L100.74 172.214C100.881 172.439 101.077 172.625 101.31 172.754C101.543 172.883 101.804 172.951 102.07 172.952C102.23 172.952 102.389 172.929 102.543 172.884C102.879 172.79 103.174 172.588 103.382 172.309C103.591 172.03 103.702 171.689 103.697 171.341V162.08C105.901 162.044 108.001 161.134 109.535 159.55C111.068 157.966 111.91 155.837 111.874 153.633C111.838 151.429 110.928 149.329 109.344 147.795C107.76 146.262 105.631 145.42 103.427 145.456L103.426 145.458ZM103.426 161.016H102.621V171.341C102.622 171.457 102.585 171.569 102.516 171.662C102.447 171.755 102.35 171.823 102.239 171.856C102.129 171.889 102.01 171.885 101.902 171.844C101.794 171.804 101.701 171.729 101.639 171.632L94.739 161.016H40.844C38.9236 161.016 37.0818 160.253 35.7238 158.895C34.3659 157.537 33.603 155.695 33.603 153.775C33.603 151.855 34.3659 150.013 35.7238 148.655C37.0818 147.297 38.9236 146.534 40.844 146.534H103.426C105.346 146.534 107.188 147.297 108.546 148.655C109.904 150.013 110.667 151.855 110.667 153.775C110.667 155.695 109.904 157.537 108.546 158.895C107.188 160.253 105.346 161.016 103.426 161.016Z" fill="#221573"/>
<path d="M45.572 158.331C47.9413 158.331 49.862 156.41 49.862 154.041C49.862 151.672 47.9413 149.751 45.572 149.751C43.2027 149.751 41.282 151.672 41.282 154.041C41.282 156.41 43.2027 158.331 45.572 158.331Z" fill="white"/>
<path d="M58.444 158.331C60.8133 158.331 62.734 156.41 62.734 154.041C62.734 151.672 60.8133 149.751 58.444 149.751C56.0747 149.751 54.154 151.672 54.154 154.041C54.154 156.41 56.0747 158.331 58.444 158.331Z" fill="white"/>
<path d="M71.315 158.331C73.6843 158.331 75.605 156.41 75.605 154.041C75.605 151.672 73.6843 149.751 71.315 149.751C68.9457 149.751 67.025 151.672 67.025 154.041C67.025 156.41 68.9457 158.331 71.315 158.331Z" fill="white"/>
<path d="M140.613 67.966C137.976 69.854 135.095 71.3764 132.05 72.492C131.261 72.792 130.46 73.06 129.65 73.305H93.95C93.796 73.033 93.642 72.764 93.488 72.492C90.402 67.003 87.577 61.292 86.788 55.092C85.861 47.792 88.461 39.524 94.888 35.937C95.7308 35.4678 96.6229 35.0932 97.548 34.82C97.931 34.706 98.322 34.611 98.716 34.528C101.125 33.9935 103.634 34.1102 105.983 34.8661C108.333 35.622 110.439 36.9898 112.084 38.829C113.73 40.6681 114.857 42.9123 115.348 45.331C115.839 47.7496 115.678 50.2554 114.88 52.591C120.33 47.003 119.312 37.943 117.433 30.37C115.554 22.797 113.27 14.37 117.102 7.56501C118.186 5.7409 119.643 4.16697 121.379 2.94684C123.115 1.72671 125.09 0.888041 127.173 0.48601L127.56 0.403003C132.566 -0.608991 137.769 0.30257 142.133 2.956C150.164 8.019 154.291 17.616 155.633 27.02C157.791 42.149 153.016 59.031 140.613 67.966Z" fill="#C5E6FF"/>
<path d="M101.632 39.344C104.598 45.3709 105.544 52.1923 104.332 58.799C103.387 63.7874 101.272 68.4804 98.16 72.492C97.947 72.764 97.73 73.037 97.505 73.305H96.029C96.266 73.037 96.499 72.768 96.723 72.492C99.5133 69.116 101.544 65.1791 102.678 60.9485C103.812 56.718 104.022 52.2929 103.294 47.974C102.443 43.198 100.477 38.6901 97.556 34.817C97.939 34.703 98.329 34.608 98.724 34.525C99.8342 36.0416 100.807 37.654 101.632 39.343V39.344Z" fill="white"/>
<path d="M137.094 43.716C136.777 47.0531 135.975 50.3261 134.714 53.432C133.55 56.1801 131.984 58.7393 130.065 61.025C126.075 65.6949 121.021 69.338 115.33 71.648C114.616 71.948 113.889 72.232 113.163 72.492C112.358 72.784 111.547 73.055 110.732 73.305H106.332C107.409 73.064 108.475 72.796 109.532 72.492C112.144 71.7522 114.687 70.7868 117.132 69.607C122.42 67.1011 127.012 63.3339 130.502 58.637C134.092 53.4228 136.067 47.2666 136.18 40.937C136.4 34.1319 135.687 27.3287 134.061 20.717C132.486 13.9744 130.091 7.45014 126.93 1.29001C126.859 1.15052 126.845 0.989199 126.89 0.839392C126.935 0.689585 127.035 0.562723 127.171 0.485007C127.227 0.446233 127.29 0.418933 127.356 0.404684C127.423 0.390436 127.491 0.389531 127.558 0.402014C127.624 0.420514 127.685 0.453077 127.736 0.497458C127.788 0.541838 127.83 0.59696 127.858 0.659003C128.249 1.421 128.631 2.182 128.998 2.952C132.063 9.36735 134.32 16.138 135.718 23.109C137.206 29.8704 137.669 36.8169 137.094 43.716Z" fill="white"/>
<path d="M58.6963 254.347C25.7827 244.909 1.70968 231.557 3.89438 223.938C5.20338 219.373 15.5032 217.918 32.1626 219.95C32.2238 219.955 32.2833 219.972 32.3376 220.001C32.3919 220.03 32.4399 220.069 32.4787 220.117C32.5175 220.164 32.5462 220.219 32.5633 220.278C32.5803 220.337 32.5852 220.399 32.5778 220.46C32.5703 220.521 32.5506 220.58 32.5199 220.633C32.4892 220.686 32.448 220.732 32.3989 220.769C32.3498 220.806 32.2938 220.833 32.2341 220.847C32.1745 220.862 32.1126 220.864 32.052 220.855C16.3624 218.942 5.90704 220.224 4.77004 224.189C2.79565 231.074 27.6055 244.484 58.9474 253.472C90.2893 262.459 118.435 264.234 120.41 257.348C121.553 253.362 113.308 246.711 98.8918 239.994C98.8349 239.97 98.7834 239.935 98.7403 239.891C98.6972 239.847 98.6635 239.795 98.6412 239.738C98.6188 239.68 98.6083 239.619 98.6103 239.558C98.6123 239.496 98.6267 239.436 98.6527 239.38C98.6787 239.324 98.7157 239.274 98.7615 239.233C98.8073 239.192 98.8609 239.16 98.9192 239.141C98.9775 239.121 99.0392 239.113 99.1006 239.118C99.1619 239.122 99.2217 239.139 99.2764 239.168C114.578 246.298 122.599 253.017 121.286 257.599C119.101 265.218 91.6099 263.785 58.6963 254.347Z" fill="#221573"/>
<path d="M28.8434 248.558C30.3589 254.511 33.4114 259.962 37.6953 264.366C41.9793 268.769 47.3445 271.97 53.2542 273.648C59.1638 275.327 65.4106 275.424 71.3695 273.93C77.3284 272.436 82.7905 269.403 87.2091 265.135C67.4648 260.683 47.9802 255.149 28.8434 248.558Z" fill="#C5E6FF"/>
<path d="M93.1197 256.694C95.9984 252.072 97.7618 246.843 98.2704 241.422C98.7791 236 98.0189 230.535 96.05 225.458C94.0812 220.382 90.9579 215.833 86.9271 212.172C82.8963 208.511 78.0688 205.838 72.8265 204.366C67.5843 202.893 62.0712 202.661 56.7237 203.687C51.3762 204.714 46.341 206.971 42.0166 210.28C37.6922 213.589 34.1973 217.859 31.8085 222.752C29.4197 227.645 28.2025 233.027 28.2534 238.472C48.9965 247.326 70.8005 253.451 93.1197 256.694Z" fill="#C5E6FF"/>
<path d="M73.8684 227.888C76.0455 228.512 78.3166 227.253 78.9409 225.076C79.5652 222.899 78.3063 220.628 76.1291 220.003C73.9519 219.379 71.6809 220.638 71.0566 222.815C70.4323 224.992 71.6912 227.263 73.8684 227.888Z" fill="white"/>
<path d="M54.4254 269.243C56.6025 269.867 58.8736 268.608 59.4979 266.431C60.1222 264.254 58.8633 261.983 56.6861 261.358C54.509 260.734 52.2379 261.993 51.6136 264.17C50.9893 266.347 52.2482 268.618 54.4254 269.243Z" fill="white"/>
<path d="M49.5103 238.441C53.1389 239.482 56.924 237.384 57.9645 233.755C59.005 230.127 56.9069 226.341 53.2782 225.301C49.6496 224.26 45.8645 226.359 44.824 229.987C43.7835 233.616 45.8816 237.401 49.5103 238.441Z" fill="white"/>
<path d="M256.01 180.448C252.274 185.26 248.845 191.091 249.868 197.433C250.293 200.148 251.612 202.643 253.615 204.525C255.679 206.351 258.131 207.683 260.787 208.42C266.721 210.248 273.029 209.654 279.038 211.083C281.746 211.577 284.246 212.868 286.216 214.79C287.626 216.321 288.793 218.621 287.841 220.682C286.865 222.799 284.376 223.345 282.246 223.148C279.407 222.879 277.033 221.364 274.557 220.077C271.893 218.692 269.003 217.644 265.966 218.256C263.315 218.867 260.882 220.192 258.932 222.089C256.511 224.317 254.668 227.065 252.6 229.603C250.745 231.887 248.656 233.969 246.367 235.817C241.878 239.438 236.703 242.115 231.154 243.686C228.42 244.456 225.252 245.061 222.516 243.972C220.405 243.133 218.31 241.104 218.487 238.652C218.612 237.616 219.095 236.656 219.853 235.938C220.611 235.22 221.596 234.79 222.637 234.721C224.813 234.653 226.14 236.815 225.897 238.821C225.859 239.291 225.711 239.747 225.463 240.149C225.216 240.552 224.876 240.89 224.473 241.136C223.568 241.684 224.507 243.027 225.407 242.484C227.495 241.222 228.003 238.451 227.18 236.277C226.794 235.183 226.023 234.268 225.012 233.701C224 233.134 222.817 232.955 221.683 233.197C220.502 233.454 219.421 234.05 218.574 234.913C217.727 235.775 217.151 236.866 216.915 238.051C216.483 240.634 218.05 243.136 220.126 244.542C222.69 246.279 225.865 246.433 228.834 245.903C231.832 245.329 234.749 244.395 237.523 243.122C243.122 240.631 248.145 237.01 252.279 232.487C256.354 228.007 259.705 221.141 266.217 219.869C269.567 219.214 272.537 220.844 275.39 222.381C277.909 223.736 280.446 224.885 283.367 224.821C284.568 224.863 285.758 224.572 286.803 223.978C287.848 223.385 288.708 222.513 289.287 221.46C290.391 219.178 289.622 216.571 288.188 214.629C284.402 209.498 277.267 208.886 271.42 208.407C265.539 207.925 258.797 207.435 254.379 202.998C252.365 200.895 251.267 198.08 251.325 195.169C251.439 191.842 252.452 188.607 254.256 185.809C255.164 184.318 256.164 182.885 257.25 181.518C257.896 180.686 256.649 179.62 256.001 180.455L256.01 180.448Z" fill="#C5E6FF"/>
<path d="M272.16 169.593C268.403 173.813 264.019 177.431 259.163 180.319C257.965 181.026 256.743 181.69 255.496 182.311C255.403 180.916 255.146 179.537 254.729 178.202C253.269 173.511 250.256 169.484 247.365 165.506C244.475 161.529 241.598 157.366 240.475 152.584C239.974 150.43 239.94 148.194 240.373 146.026C240.61 144.584 241.151 143.208 241.961 141.991C242.771 140.773 243.831 139.743 245.07 138.967C248.803 136.806 253.792 137.757 257.154 140.453C260.516 143.148 262.469 147.273 263.522 151.454C264.451 147.352 270.056 145.589 273.702 147.687C277.348 149.785 278.844 154.529 278.141 158.675C277.438 162.82 274.956 166.447 272.16 169.593Z" fill="#221573"/>
<path opacity="0.2" d="M259.162 180.318C257.964 181.026 256.742 181.69 255.496 182.311C255.403 180.915 255.145 179.536 254.728 178.201C253.268 173.511 250.256 169.483 247.365 165.506C244.474 161.529 241.598 157.366 240.475 152.583C239.974 150.43 239.939 148.194 240.373 146.026C248.567 151.327 254.626 159.352 257.479 168.686C258.605 172.46 259.173 176.38 259.162 180.318Z" fill="black"/>
</g>
<defs>
<clipPath id="clip0_3_2">
<rect width="303.404" height="281.997" fill="white"/>
</clipPath>
</defs>
</svg>
